<svg width="20" height="20" viewBox="0 0 20 20" fill="none" xmlns="http://www.w3.org/2000/svg">
<g id="&#231;&#188;&#150;&#231;&#187;&#132;&#229;&#164;&#135;&#228;&#187;&#189;">
<path id="Rectangle 108" d="M2.29199 7.7085C2.29199 6.93193 2.29199 6.54364 2.41886 6.23736C2.58802 5.82898 2.91247 5.50452 3.32085 5.33536C3.62714 5.2085 4.01542 5.2085 4.79199 5.2085H5.62533C8.7316 5.2085 10.2847 5.2085 11.5099 5.71597C13.1434 6.39259 14.4412 7.69042 15.1179 9.32394C15.6253 10.5491 15.6253 12.1022 15.6253 15.2085V15.2085C15.6253 15.9851 15.6253 16.3733 15.4985 16.6796C15.3293 17.088 15.0048 17.4125 14.5965 17.5816C14.2902 17.7085 13.9019 17.7085 13.1253 17.7085H4.79199C4.01542 17.7085 3.62714 17.7085 3.32085 17.5816C2.91247 17.4125 2.58802 17.088 2.41886 16.6796C2.29199 16.3733 2.29199 15.9851 2.29199 15.2085V7.7085Z" stroke="black" stroke-opacity="0.85" stroke-width="1.4"/>
<path id="Union" fill-rule="evenodd" clip-rule="evenodd" d="M13.75 1.7777C13.75 1.50855 13.4986 1.31002 13.2368 1.37236L9.54549 2.25125C9.19506 2.27103 8.91699 2.56146 8.91699 2.91684C8.91699 3.28503 9.21547 3.58351 9.58366 3.58351C13.057 3.58351 15.9834 5.55703 17.1364 8.57166L18.3818 8.09535C17.5284 5.86398 15.8586 4.13536 13.75 3.15468V1.7777Z" fill="black" fill-opacity="0.85"/>
</g>
</svg>
